# xmcd CD database file
#
# Track frame offsets:
#	150
#	49950
#	95850
#	145575
#	192900
#
# Disc length: 2949 seconds
#
# Revision: 0
# Processed by: cddbd v1.5.2PL0 Copyright (c) Steve Scherf et al.
# Submitted via: CDex 1.51
#
DISCID=450b8305
DTITLE=Russill Paul - Spirit Bridges
DYEAR=2004
DGENRE=New Age
TTITLE0=The Hero's Journey
TTITLE1=Flowing, Down Under
TTITLE2=Remembering Howrah
TTITLE3=The Golden Gate
TTITLE4=Ma's River
EXTD=YEAR: 2004
EXTT0=
EXTT1=
EXTT2=
EXTT3=
EXTT4=
PLAYORDER=
